<svg width="27" height="27" viewBox="0 0 27 27" fill="none" xmlns="http://www.w3.org/2000/svg">
<path d="M22.5 14.625C22.5 20.25 18.5625 23.0625 13.8825 24.6938C13.6374 24.7768 13.3712 24.7728 13.1288 24.6825C8.4375 23.0625 4.5 20.25 4.5 14.625V6.75C4.5 6.45163 4.61853 6.16549 4.82951 5.95451C5.04048 5.74353 5.32663 5.625 5.625 5.625C7.875 5.625 10.6875 4.275 12.645 2.565C12.8833 2.36138 13.1865 2.2495 13.5 2.2495C13.8135 2.2495 14.1167 2.36138 14.355 2.565C16.3238 4.28625 19.125 5.625 21.375 5.625C21.6734 5.625 21.9595 5.74353 22.1705 5.95451C22.3815 6.16549 22.5 6.45163 22.5 6.75V14.625Z" stroke="white" stroke-linecap="round" stroke-linejoin="round"/>
<path d="M13.3259 13.125C14.6203 13.125 15.6696 12.0757 15.6696 10.7813C15.6696 9.48687 14.6203 8.43755 13.3259 8.43755C12.0315 8.43755 10.9822 9.48687 10.9822 10.7813C10.9822 12.0757 12.0315 13.125 13.3259 13.125Z" stroke="white" stroke-width="0.833326" stroke-linecap="round" stroke-linejoin="round"/>
<path d="M16.875 16.875C16.875 15.8804 16.4799 14.9266 15.7767 14.2234C15.0734 13.5201 14.1196 13.125 13.125 13.125C12.1305 13.125 11.1767 13.5201 10.4734 14.2234C9.77015 14.9266 9.37506 15.8804 9.37506 16.875" stroke="white" stroke-width="0.833326" stroke-linecap="round" stroke-linejoin="round"/>
</svg>
