<svg width="27" height="27" viewBox="0 0 27 27" fill="none" xmlns="http://www.w3.org/2000/svg">
<path d="M13.5 19.125C14.1213 19.125 14.625 18.6213 14.625 18C14.625 17.3787 14.1213 16.875 13.5 16.875C12.8787 16.875 12.375 17.3787 12.375 18C12.375 18.6213 12.8787 19.125 13.5 19.125Z" stroke="white" stroke-linecap="round" stroke-linejoin="round"/>
<path d="M21.375 11.25H5.625C4.38236 11.25 3.375 12.2574 3.375 13.5V22.5C3.375 23.7426 4.38236 24.75 5.625 24.75H21.375C22.6176 24.75 23.625 23.7426 23.625 22.5V13.5C23.625 12.2574 22.6176 11.25 21.375 11.25Z" stroke="white" stroke-linecap="round" stroke-linejoin="round"/>
<path d="M7.875 11.25V7.875C7.875 6.38316 8.46763 4.95242 9.52252 3.89752C10.5774 2.84263 12.0082 2.25 13.5 2.25C14.9918 2.25 16.4226 2.84263 17.4775 3.89752C18.5324 4.95242 19.125 6.38316 19.125 7.875V11.25" stroke="white" stroke-linecap="round" stroke-linejoin="round"/>
</svg>
