<svg width="27" height="27" viewBox="0 0 27 27" fill="none" xmlns="http://www.w3.org/2000/svg">
<path d="M13.5 9C19.0919 9 23.625 7.48896 23.625 5.625C23.625 3.76104 19.0919 2.25 13.5 2.25C7.90812 2.25 3.375 3.76104 3.375 5.625C3.375 7.48896 7.90812 9 13.5 9Z" stroke="white" stroke-linecap="round" stroke-linejoin="round"/>
<path d="M3.375 5.625V21.375C3.375 22.2701 4.44174 23.1286 6.34054 23.7615C8.23935 24.3944 10.8147 24.75 13.5 24.75C16.1853 24.75 18.7606 24.3944 20.6595 23.7615C22.5583 23.1286 23.625 22.2701 23.625 21.375V5.625" stroke="white" stroke-linecap="round" stroke-linejoin="round"/>
<path d="M3.375 13.5C3.375 14.3951 4.44174 15.2536 6.34054 15.8865C8.23935 16.5194 10.8147 16.875 13.5 16.875C16.1853 16.875 18.7606 16.5194 20.6595 15.8865C22.5583 15.2536 23.625 14.3951 23.625 13.5" stroke="white" stroke-linecap="round" stroke-linejoin="round"/>
</svg>
