<svg width="27" height="27" viewBox="0 0 27 27" fill="none" xmlns="http://www.w3.org/2000/svg">
<path d="M21.3757 5.62495L24.7507 2.24995" stroke="white" stroke-linecap="round" stroke-linejoin="round"/>
<path d="M2.24921 24.75L5.62421 21.375" stroke="white" stroke-linecap="round" stroke-linejoin="round"/>
<path d="M7.08723 22.8375C7.33807 23.0892 7.63613 23.2889 7.96432 23.4252C8.29251 23.5615 8.64437 23.6316 8.99973 23.6316C9.35509 23.6316 9.70695 23.5615 10.0351 23.4252C10.3633 23.2889 10.6614 23.0892 10.9122 22.8375L13.4997 20.25L6.74973 13.5L4.16223 16.0875C3.91052 16.3383 3.7108 16.6364 3.57453 16.9646C3.43825 17.2928 3.3681 17.6446 3.3681 18C3.3681 18.3554 3.43825 18.7072 3.57453 19.0354C3.7108 19.3636 3.91052 19.6617 4.16223 19.9125L7.08723 22.8375Z" stroke="white" stroke-linecap="round" stroke-linejoin="round"/>
<path d="M8.4375 15.1875L11.25 12.375" stroke="white" stroke-linecap="round" stroke-linejoin="round"/>
<path d="M11.8125 18.5625L14.625 15.75" stroke="white" stroke-linecap="round" stroke-linejoin="round"/>
<path d="M13.5 6.75004L20.25 13.5L22.8375 10.9125C23.0892 10.6617 23.2889 10.3636 23.4252 10.0354C23.5615 9.70726 23.6316 9.35539 23.6316 9.00004C23.6316 8.64468 23.5615 8.29282 23.4252 7.96463C23.2889 7.63644 23.0892 7.33838 22.8375 7.08754L19.9125 4.16254C19.6617 3.91083 19.3636 3.71111 19.0354 3.57483C18.7072 3.43856 18.3554 3.36841 18 3.36841C17.6446 3.36841 17.2928 3.43856 16.9646 3.57483C16.6364 3.71111 16.3383 3.91083 16.0875 4.16254L13.5 6.75004Z" stroke="white" stroke-linecap="round" stroke-linejoin="round"/>
</svg>
