<svg width="27" height="27" viewBox="0 0 27 27" fill="none" xmlns="http://www.w3.org/2000/svg">
<path d="M20.25 23.625C20.25 21.2381 19.3018 18.9489 17.614 17.261C15.9261 15.5732 13.6369 14.625 11.25 14.625C8.86305 14.625 6.57387 15.5732 4.88604 17.261C3.19821 18.9489 2.25 21.2381 2.25 23.625" stroke="white" stroke-linecap="round" stroke-linejoin="round"/>
<path d="M11.25 14.625C14.3566 14.625 16.875 12.1066 16.875 9C16.875 5.8934 14.3566 3.375 11.25 3.375C8.1434 3.375 5.625 5.8934 5.625 9C5.625 12.1066 8.1434 14.625 11.25 14.625Z" stroke="white" stroke-linecap="round" stroke-linejoin="round"/>
<path d="M24.75 22.5C24.75 18.7088 22.5 15.1875 20.25 13.5C20.9896 12.9451 21.581 12.2165 21.9719 11.3786C22.3628 10.5406 22.5411 9.61928 22.491 8.69603C22.441 7.77278 22.1641 6.8761 21.6849 6.08536C21.2057 5.29461 20.539 4.63418 19.7438 4.16251" stroke="white" stroke-linecap="round" stroke-linejoin="round"/>
</svg>
