<svg width="27" height="27" viewBox="0 0 27 27" fill="none" xmlns="http://www.w3.org/2000/svg">
<path d="M13.7475 2.25H13.2525C12.6558 2.25 12.0835 2.48705 11.6615 2.90901C11.2396 3.33097 11.0025 3.90326 11.0025 4.5V4.7025C11.0021 5.09707 10.8979 5.48459 10.7005 5.82619C10.503 6.1678 10.2192 6.45147 9.8775 6.64875L9.39375 6.93C9.05171 7.12748 8.66371 7.23144 8.26875 7.23144C7.87379 7.23144 7.4858 7.12748 7.14375 6.93L6.975 6.84C6.4587 6.54217 5.84532 6.46137 5.2695 6.61535C4.69369 6.76932 4.2025 7.14548 3.90375 7.66125L3.65625 8.08875C3.35842 8.60505 3.27763 9.21843 3.4316 9.79425C3.58557 10.3701 3.96173 10.8613 4.4775 11.16L4.64625 11.2725C4.98631 11.4688 5.26907 11.7507 5.46643 12.0902C5.66379 12.4296 5.76888 12.8148 5.77125 13.2075V13.7812C5.77283 14.1777 5.66961 14.5676 5.47205 14.9113C5.27449 15.2551 4.98961 15.5405 4.64625 15.7387L4.4775 15.84C3.96173 16.1387 3.58557 16.6299 3.4316 17.2058C3.27763 17.7816 3.35842 18.3949 3.65625 18.9112L3.90375 19.3388C4.2025 19.8545 4.69369 20.2307 5.2695 20.3847C5.84532 20.5386 6.4587 20.4578 6.975 20.16L7.14375 20.07C7.4858 19.8725 7.87379 19.7686 8.26875 19.7686C8.66371 19.7686 9.05171 19.8725 9.39375 20.07L9.8775 20.3513C10.2192 20.5485 10.503 20.8322 10.7005 21.1738C10.8979 21.5154 11.0021 21.9029 11.0025 22.2975V22.5C11.0025 23.0967 11.2396 23.669 11.6615 24.091C12.0835 24.5129 12.6558 24.75 13.2525 24.75H13.7475C14.3442 24.75 14.9165 24.5129 15.3385 24.091C15.7604 23.669 15.9975 23.0967 15.9975 22.5V22.2975C15.9979 21.9029 16.1021 21.5154 16.2995 21.1738C16.497 20.8322 16.7808 20.5485 17.1225 20.3513L17.6063 20.07C17.9483 19.8725 18.3363 19.7686 18.7313 19.7686C19.1262 19.7686 19.5142 19.8725 19.8563 20.07L20.025 20.16C20.5413 20.4578 21.1547 20.5386 21.7305 20.3847C22.3063 20.2307 22.7975 19.8545 23.0963 19.3388L23.3438 18.9C23.6416 18.3837 23.7224 17.7703 23.5684 17.1945C23.4144 16.6187 23.0383 16.1275 22.5225 15.8287L22.3538 15.7387C22.0104 15.5405 21.7255 15.2551 21.528 14.9113C21.3304 14.5676 21.2272 14.1777 21.2288 13.7812V13.2188C21.2272 12.8223 21.3304 12.4324 21.528 12.0887C21.7255 11.7449 22.0104 11.4595 22.3538 11.2613L22.5225 11.16C23.0383 10.8613 23.4144 10.3701 23.5684 9.79425C23.7224 9.21843 23.6416 8.60505 23.3438 8.08875L23.0963 7.66125C22.7975 7.14548 22.3063 6.76932 21.7305 6.61535C21.1547 6.46137 20.5413 6.54217 20.025 6.84L19.8563 6.93C19.5142 7.12748 19.1262 7.23144 18.7313 7.23144C18.3363 7.23144 17.9483 7.12748 17.6063 6.93L17.1225 6.64875C16.7808 6.45147 16.497 6.1678 16.2995 5.82619C16.1021 5.48459 15.9979 5.09707 15.9975 4.7025V4.5C15.9975 3.90326 15.7604 3.33097 15.3385 2.90901C14.9165 2.48705 14.3442 2.25 13.7475 2.25Z" stroke="white" stroke-linecap="round" stroke-linejoin="round"/>
<path d="M13.5 16.875C15.364 16.875 16.875 15.364 16.875 13.5C16.875 11.636 15.364 10.125 13.5 10.125C11.636 10.125 10.125 11.636 10.125 13.5C10.125 15.364 11.636 16.875 13.5 16.875Z" stroke="white" stroke-linecap="round" stroke-linejoin="round"/>
</svg>
