<svg width="27" height="27" viewBox="0 0 27 27" fill="none" xmlns="http://www.w3.org/2000/svg">
<path d="M6.30968 10.7159L6.01539 10.7817C4.70305 11.0752 3.65198 11.7426 2.84295 12.7927C2.03006 13.8477 1.62504 15.0431 1.625 16.3967L6.30968 10.7159ZM6.30968 10.7159L6.38875 10.4249M6.30968 10.7159L6.38875 10.4249M6.38875 10.4249C6.82897 8.80487 7.70396 7.50238 9.02129 6.50121C10.3397 5.49918 11.827 5 13.5 5C15.5634 5 17.2966 5.71312 18.7298 7.1463C20.163 8.57948 20.8757 10.3123 20.875 12.3748L20.8748 12.8204M6.38875 10.4249L20.8748 12.8204M20.8748 12.8204L21.3174 12.8717M20.8748 12.8204L21.3174 12.8717M21.3174 12.8717C22.4901 13.0076 23.4503 13.5075 24.2212 14.3801C24.9936 15.2543 25.3757 16.2658 25.375 17.4372V17.4375M21.3174 12.8717L25.375 17.4375M25.375 17.4375C25.375 18.7127 24.9346 19.7807 24.0453 20.6706C23.1563 21.5603 22.0886 22.0007 20.8128 22H20.8125M25.375 17.4375L20.8125 22M20.8125 22H7.3125C5.73547 22 4.40365 21.4595 3.28905 20.3705M20.8125 22L3.28905 20.3705M3.28905 20.3705C2.17736 19.2843 1.62574 17.9699 1.625 16.3969L3.28905 20.3705Z" stroke="white"/>
<path fill-rule="evenodd" clip-rule="evenodd" d="M10.4063 9C10.4063 8.68934 10.6581 8.4375 10.9688 8.4375C12.108 8.4375 12.8883 9.20995 13.4497 10.1081C14.0071 10.9999 14.4451 12.1682 14.857 13.2664L14.8705 13.3025C15.2985 14.4438 15.7007 15.5097 16.1919 16.2956C16.6852 17.085 17.1705 17.4375 17.7188 17.4375C18.0295 17.4375 18.2813 17.6893 18.2813 18C18.2813 18.3107 18.0295 18.5625 17.7188 18.5625C16.5796 18.5625 15.7992 17.79 15.2379 16.8919C14.7343 16.0861 14.3281 15.0547 13.9507 14.0531L10.8623 18.3293C10.6804 18.5812 10.3288 18.6379 10.077 18.456C9.82511 18.2741 9.7684 17.9225 9.95028 17.6707L13.4734 12.7925C13.1652 12.0004 12.8541 11.2779 12.4957 10.7044C12.0024 9.91505 11.5171 9.5625 10.9688 9.5625C10.6581 9.5625 10.4063 9.31066 10.4063 9Z" fill="white"/>
</svg>
