<svg width="27" height="27" viewBox="0 0 27 27" fill="none" xmlns="http://www.w3.org/2000/svg">
<path d="M13.5 24.75C19.7132 24.75 24.75 19.7132 24.75 13.5C24.75 7.2868 19.7132 2.25 13.5 2.25C7.2868 2.25 2.25 7.2868 2.25 13.5C2.25 19.7132 7.2868 24.75 13.5 24.75Z" stroke="white" stroke-linecap="round" stroke-linejoin="round"/>
<path d="M10.0001 15.9721L10.9001 15.2521C11.1721 15.7641 11.5361 16.1641 11.9921 16.4521C12.4561 16.7401 12.9681 16.8841 13.5281 16.8841C13.9041 16.8841 14.2401 16.8241 14.5361 16.7041C14.8321 16.5841 15.0681 16.4121 15.2441 16.1881C15.4201 15.9561 15.5081 15.6761 15.5081 15.3481C15.5081 14.9961 15.4041 14.7321 15.1961 14.5561C14.9961 14.3721 14.7241 14.2281 14.3801 14.1241C14.0361 14.0201 13.6441 13.9161 13.2041 13.8121C12.8681 13.7321 12.5361 13.6401 12.2081 13.5361C11.8881 13.4321 11.6001 13.3001 11.3441 13.1401C11.0881 12.9801 10.8841 12.7681 10.7321 12.5041C10.5801 12.2401 10.5041 11.9041 10.5041 11.4961C10.5041 10.9921 10.6361 10.5521 10.9001 10.1761C11.1641 9.80006 11.5161 9.51206 11.9561 9.31206C12.4041 9.10406 12.9001 9.00006 13.4441 9.00006C14.1961 9.00006 14.8361 9.16006 15.3641 9.48006C15.8921 9.80006 16.2841 10.2041 16.5401 10.6921L15.6641 11.3881C15.4401 10.9721 15.1481 10.6361 14.7881 10.3801C14.4361 10.1241 13.9801 9.99606 13.4201 9.99606C13.0761 9.99606 12.7681 10.0561 12.4961 10.1761C12.2241 10.2961 12.0081 10.4601 11.8481 10.6681C11.6961 10.8761 11.6201 11.1201 11.6201 11.4001C11.6201 11.7041 11.7041 11.9401 11.8721 12.1081C12.0401 12.2761 12.2761 12.4081 12.5801 12.5041C12.8841 12.6001 13.2361 12.6961 13.6361 12.7921C13.9961 12.8721 14.3521 12.9641 14.7041 13.0681C15.0561 13.1641 15.3761 13.2961 15.6641 13.4641C15.9601 13.6321 16.1961 13.8601 16.3721 14.1481C16.5481 14.4281 16.6361 14.7961 16.6361 15.2521C16.6361 15.7881 16.4921 16.2521 16.2041 16.6441C15.9241 17.0361 15.5441 17.3401 15.0641 17.5561C14.5921 17.7721 14.0721 17.8801 13.5041 17.8801C13.0081 17.8801 12.5281 17.8041 12.0641 17.6521C11.6081 17.4921 11.2001 17.2681 10.8401 16.9801C10.4801 16.6921 10.2001 16.3561 10.0001 15.9721Z" fill="white"/>
</svg>
