<svg width="27" height="27" viewBox="0 0 27 27" fill="none" xmlns="http://www.w3.org/2000/svg">
<mask id="path-1-inside-1_3867_454" fill="white">
<path d="M20.7096 7.03306C19.3452 6.41423 17.9045 5.97546 16.4246 5.72803C16.2218 6.08633 16.0386 6.45508 15.8755 6.83268C14.299 6.59771 12.6958 6.59771 11.1193 6.83268C10.9566 6.4551 10.7738 6.08636 10.5715 5.72803C9.09078 5.97881 7.64915 6.41833 6.28258 7.03563C3.57086 11.0047 2.83614 14.8774 3.2035 18.6936C4.79127 19.855 6.5686 20.7382 8.45818 21.305C8.88259 20.7376 9.25901 20.1365 9.58362 19.508C8.96928 19.2808 8.37635 19.0006 7.81173 18.6705C7.96144 18.5626 8.1064 18.4551 8.24659 18.3481C9.89007 19.1128 11.6838 19.5093 13.5 19.5093C15.3161 19.5093 17.1099 19.1128 18.7533 18.3481C18.8961 18.4645 19.0411 18.572 19.1882 18.6705C18.6221 19.0011 18.0279 19.2822 17.4124 19.5105C17.7356 20.1387 18.1121 20.7385 18.5379 21.3037C20.4285 20.7385 22.2072 19.8566 23.7964 18.6962C24.2274 14.2698 23.0604 10.4331 20.7096 7.03306ZM10.0483 16.3456C9.02415 16.3456 8.17909 15.4272 8.17909 14.2955C8.17909 13.1639 8.99559 12.2365 10.047 12.2365C11.0985 12.2365 11.9371 13.1639 11.9189 14.2955C11.9007 15.4259 11.0933 16.3468 10.0496 16.3468M16.9503 16.3468C15.9248 16.3468 15.081 15.4284 15.081 14.2968C15.081 13.1652 15.8988 12.2378 16.9503 12.2378C18.0018 12.2378 18.8351 13.1652 18.817 14.2968C18.7988 15.4272 17.994 16.3468 16.9503 16.3468Z"/>
</mask>
<path d="M20.7096 7.03306L21.5321 6.46435L21.3747 6.23668L21.1226 6.12236L20.7096 7.03306ZM16.4246 5.72803L16.5895 4.74172L15.899 4.62627L15.5542 5.23559L16.4246 5.72803ZM15.8755 6.83268L15.7281 7.82176L16.4886 7.93512L16.7935 7.22915L15.8755 6.83268ZM11.1193 6.83268L10.2009 7.22831L10.5054 7.93523L11.2667 7.82176L11.1193 6.83268ZM10.5715 5.72803L11.4423 5.23643L11.097 4.62478L10.4045 4.74207L10.5715 5.72803ZM6.28258 7.03563L5.87091 6.12429L5.61518 6.23981L5.45689 6.47151L6.28258 7.03563ZM3.2035 18.6936L2.2081 18.7894L2.25108 19.2359L2.61313 19.5007L3.2035 18.6936ZM8.45818 21.305L8.1709 22.2628L8.84032 22.4636L9.25894 21.9039L8.45818 21.305ZM9.58362 19.508L10.4721 19.9668L10.991 18.9621L9.93038 18.57L9.58362 19.508ZM7.81173 18.6705L7.22706 17.8592L5.98004 18.7579L7.307 19.5338L7.81173 18.6705ZM8.24659 18.3481L8.66848 17.4414L8.1203 17.1863L7.63974 17.5533L8.24659 18.3481ZM13.5 19.5093V20.5093V19.5093ZM18.7533 18.3481L19.3854 17.5731L18.8997 17.177L18.3315 17.4414L18.7533 18.3481ZM19.1882 18.6705L19.6925 19.534L21.0722 18.7282L19.7445 17.8395L19.1882 18.6705ZM17.4124 19.5105L17.0646 18.573L16.0072 18.9652L16.5232 19.9681L17.4124 19.5105ZM18.5379 21.3037L17.7391 21.9054L18.1577 22.461L18.8243 22.2618L18.5379 21.3037ZM23.7964 18.6962L24.3861 19.5038L24.7483 19.2394L24.7917 18.7931L23.7964 18.6962ZM11.9189 14.2955L12.9188 14.3116V14.3116L11.9189 14.2955ZM18.817 14.2968L19.8168 14.3129V14.3129L18.817 14.2968ZM21.1226 6.12236C19.679 5.4676 18.1549 5.00345 16.5895 4.74172L16.2597 6.71434C17.6541 6.94747 19.0113 7.36086 20.2965 7.94377L21.1226 6.12236ZM15.5542 5.23559C15.3339 5.62498 15.1347 6.02576 14.9574 6.43621L16.7935 7.22915C16.9424 6.88439 17.1098 6.54769 17.2949 6.22047L15.5542 5.23559ZM16.0229 5.84361C14.3486 5.59407 12.6461 5.59407 10.9719 5.84361L11.2667 7.82176C12.7455 7.60135 14.2493 7.60135 15.7281 7.82176L16.0229 5.84361ZM12.0377 6.43706C11.8609 6.02663 11.6621 5.62585 11.4423 5.23643L9.70065 6.21962C9.88539 6.54687 10.0524 6.88357 10.2009 7.22831L12.0377 6.43706ZM10.4045 4.74207C8.8395 5.00712 7.31563 5.4717 5.87091 6.12429L6.69424 7.94697C7.98266 7.36497 9.34205 6.95049 10.7385 6.71399L10.4045 4.74207ZM5.45689 6.47151C2.6045 10.6465 1.81981 14.7558 2.2081 18.7894L4.1989 18.5978C3.85247 14.999 4.53723 11.3629 7.10827 7.59975L5.45689 6.47151ZM2.61313 19.5007C4.29289 20.7294 6.17277 21.6635 8.1709 22.2628L8.74546 20.3471C6.96443 19.8129 5.28965 18.9805 3.79388 17.8865L2.61313 19.5007ZM9.25894 21.9039C9.71637 21.2924 10.1222 20.6445 10.4721 19.9668L8.69511 19.0491C8.39587 19.6286 8.04881 20.1827 7.65742 20.706L9.25894 21.9039ZM9.93038 18.57C9.37069 18.3631 8.83063 18.1078 8.31646 17.8072L7.307 19.5338C7.92207 19.8934 8.56787 20.1986 9.23687 20.4459L9.93038 18.57ZM8.3964 19.4817C8.55324 19.3687 8.70561 19.2558 8.85344 19.1429L7.63974 17.5533C7.50719 17.6545 7.36964 17.7564 7.22706 17.8592L8.3964 19.4817ZM7.8247 19.2547C9.60059 20.0811 11.5384 20.5093 13.5 20.5093V18.5093C11.8293 18.5093 10.1796 18.1446 8.66848 17.4414L7.8247 19.2547ZM13.5 20.5093C15.4616 20.5093 17.3994 20.0811 19.1752 19.2547L18.3315 17.4414C16.8204 18.1446 15.1706 18.5093 13.5 18.5093V20.5093ZM18.1213 19.123C18.2875 19.2585 18.4577 19.3848 18.632 19.5015L19.7445 17.8395C19.6245 17.7592 19.5048 17.6705 19.3854 17.5731L18.1213 19.123ZM18.6839 17.807C18.1678 18.1084 17.626 18.3647 17.0646 18.573L17.7602 20.4481C18.4299 20.1997 19.0764 19.8938 19.6925 19.534L18.6839 17.807ZM16.5232 19.9681C16.8725 20.6468 17.2793 21.2949 17.7391 21.9054L19.3366 20.702C18.945 20.1822 18.5988 19.6305 18.3016 19.053L16.5232 19.9681ZM18.8243 22.2618C20.8235 21.6642 22.7048 20.7314 24.3861 19.5038L23.2067 17.8885C21.7096 18.9817 20.0336 19.8129 18.2515 20.3456L18.8243 22.2618ZM24.7917 18.7931C25.2475 14.1121 24.006 10.0423 21.5321 6.46435L19.887 7.60178C22.1149 10.8239 23.2073 14.4275 22.8011 18.5993L24.7917 18.7931ZM10.0483 15.3456C9.65879 15.3456 9.17909 14.961 9.17909 14.2955H7.17909C7.17909 15.8933 8.38951 17.3456 10.0483 17.3456V15.3456ZM9.17909 14.2955C9.17909 13.6133 9.64547 13.2365 10.047 13.2365V11.2365C8.34571 11.2365 7.17909 12.7145 7.17909 14.2955H9.17909ZM10.047 13.2365C10.4647 13.2365 10.9295 13.6281 10.919 14.2795L12.9188 14.3116C12.9446 12.6997 11.7323 11.2365 10.047 11.2365V13.2365ZM10.919 14.2795C10.9078 14.9801 10.438 15.3468 10.0496 15.3468V17.3468C11.7486 17.3468 12.8937 15.8717 12.9188 14.3116L10.919 14.2795ZM16.9503 15.3468C16.5599 15.3468 16.081 14.9627 16.081 14.2968H14.081C14.081 15.8941 15.2897 17.3468 16.9503 17.3468V15.3468ZM16.081 14.2968C16.081 13.6155 16.5479 13.2378 16.9503 13.2378V11.2378C15.2498 11.2378 14.081 12.7149 14.081 14.2968H16.081ZM16.9503 13.2378C17.3645 13.2378 17.8276 13.6256 17.8171 14.2808L19.8168 14.3129C19.8427 12.7048 18.639 11.2378 16.9503 11.2378V13.2378ZM17.8171 14.2807C17.8058 14.9824 17.3377 15.3468 16.9503 15.3468V17.3468C18.6502 17.3468 19.7918 15.8719 19.8168 14.3129L17.8171 14.2807Z" fill="white" mask="url(#path-1-inside-1_3867_454)"/>
</svg>
