<svg width="27" height="27" viewBox="0 0 27 27" fill="none" xmlns="http://www.w3.org/2000/svg">
<path d="M4 13C4 10.6131 4.94821 8.32387 6.63604 6.63604C8.32387 4.94821 10.6131 4 13 4C15.516 4.00947 17.931 4.99122 19.74 6.74L22 9" stroke="white" stroke-linecap="round" stroke-linejoin="round"/>
<path d="M22 4V9H17" stroke="white" stroke-linecap="round" stroke-linejoin="round"/>
<path d="M13 22C10.484 21.9905 8.06897 21.0088 6.26 19.26L4 17" stroke="white" stroke-linecap="round" stroke-linejoin="round"/>
<path d="M9 17H4V22" stroke="white" stroke-linecap="round" stroke-linejoin="round"/>
<path d="M18.6188 12H18.3988C18.1336 12 17.8792 12.1054 17.6917 12.2929C17.5041 12.4804 17.3988 12.7348 17.3988 13V13.09C17.3986 13.2654 17.3523 13.4376 17.2646 13.5894C17.1768 13.7412 17.0507 13.8673 16.8988 13.955L16.6838 14.08C16.5318 14.1678 16.3593 14.214 16.1838 14.214C16.0083 14.214 15.8358 14.1678 15.6838 14.08L15.6088 14.04C15.3793 13.9076 15.1067 13.8717 14.8508 13.9402C14.5949 14.0086 14.3766 14.1758 14.2438 14.405L14.1338 14.595C14.0014 14.8245 13.9655 15.0971 14.0339 15.353C14.1024 15.6089 14.2696 15.8272 14.4988 15.96L14.5738 16.01C14.7249 16.0973 14.8506 16.2225 14.9383 16.3734C15.026 16.5243 15.0727 16.6955 15.0738 16.87V17.125C15.0745 17.3012 15.0286 17.4745 14.9408 17.6273C14.853 17.78 14.7264 17.9069 14.5738 17.995L14.4988 18.04C14.2696 18.1728 14.1024 18.3911 14.0339 18.647C13.9655 18.9029 14.0014 19.1755 14.1338 19.405L14.2438 19.595C14.3766 19.8242 14.5949 19.9914 14.8508 20.0598C15.1067 20.1283 15.3793 20.0924 15.6088 19.96L15.6838 19.92C15.8358 19.8322 16.0083 19.786 16.1838 19.786C16.3593 19.786 16.5318 19.8322 16.6838 19.92L16.8988 20.045C17.0507 20.1327 17.1768 20.2588 17.2646 20.4106C17.3523 20.5624 17.3986 20.7346 17.3988 20.91V21C17.3988 21.2652 17.5041 21.5196 17.6917 21.7071C17.8792 21.8946 18.1336 22 18.3988 22H18.6188C18.884 22 19.1384 21.8946 19.3259 21.7071C19.5134 21.5196 19.6188 21.2652 19.6188 21V20.91C19.619 20.7346 19.6653 20.5624 19.753 20.4106C19.8408 20.2588 19.9669 20.1327 20.1188 20.045L20.3338 19.92C20.4858 19.8322 20.6583 19.786 20.8338 19.786C21.0093 19.786 21.1818 19.8322 21.3338 19.92L21.4088 19.96C21.6383 20.0924 21.9109 20.1283 22.1668 20.0598C22.4227 19.9914 22.641 19.8242 22.7738 19.595L22.8838 19.4C23.0162 19.1705 23.0521 18.8979 22.9836 18.642C22.9152 18.3861 22.748 18.1678 22.5188 18.035L22.4438 17.995C22.2912 17.9069 22.1646 17.78 22.0768 17.6273C21.989 17.4745 21.9431 17.3012 21.9438 17.125V16.875C21.9431 16.6988 21.989 16.5255 22.0768 16.3727C22.1646 16.22 22.2912 16.0931 22.4438 16.005L22.5188 15.96C22.748 15.8272 22.9152 15.6089 22.9836 15.353C23.0521 15.0971 23.0162 14.8245 22.8838 14.595L22.7738 14.405C22.641 14.1758 22.4227 14.0086 22.1668 13.9402C21.9109 13.8717 21.6383 13.9076 21.4088 14.04L21.3338 14.08C21.1818 14.1678 21.0093 14.214 20.8338 14.214C20.6583 14.214 20.4858 14.1678 20.3338 14.08L20.1188 13.955C19.9669 13.8673 19.8408 13.7412 19.753 13.5894C19.6653 13.4376 19.619 13.2654 19.6188 13.09V13C19.6188 12.7348 19.5134 12.4804 19.3259 12.2929C19.1384 12.1054 18.884 12 18.6188 12Z" stroke="white" stroke-linecap="round" stroke-linejoin="round"/>
<path d="M18.5098 18.5C19.3382 18.5 20.0098 17.8284 20.0098 17C20.0098 16.1716 19.3382 15.5 18.5098 15.5C17.6813 15.5 17.0098 16.1716 17.0098 17C17.0098 17.8284 17.6813 18.5 18.5098 18.5Z" stroke="white" stroke-linecap="round" stroke-linejoin="round"/>
</svg>
